{
  "accessors": [
    {
      "bufferView": 2,
      "componentType": 5126,
      "count": 48,
      "max": [
        0.18066923320293427,
        0.4793170094490051,
        0.22817644476890564
      ],
      "min": [
        -0.17933078110218048,
        0.4403340816497803,
        -0.2268235832452774
      ],
      "type": "VEC3"
    },
    {
      "bufferView": 2,
      "byteOffset": 576,
      "componentType": 5126,
      "count": 48,
      "max": [
        1.0,
        0.9978817105293274,
        1.0
      ],
      "min": [
        -1.0,
        -0.9978814721107483,
        -1.0
      ],
      "type": "VEC3"
    },
    {
      "bufferView": 1,
      "componentType": 5126,
      "count": 48,
      "max": [
        9.649999618530273,
        9.979999542236328
      ],
      "min": [
        -9.979999542236328,
        0.8799999952316284
      ],
      "type": "VEC2"
    },
    {
      "bufferView": 0,
      "componentType": 5125,
      "count": 108,
      "type": "SCALAR"
    },
    {
      "bufferView": 2,
      "byteOffset": 1152,
      "componentType": 5126,
      "count": 608,
      "max": [
        0.29666924476623535,
        0.0070000519044697285,
        0.26867640018463135
      ],
      "min": [
        -0.29533079266548157,
        3.135109949425896e-10,
        -0.3193236291408539
      ],
      "type": "VEC3"
    },
    {
      "bufferView": 2,
      "byteOffset": 8448,
      "componentType": 5126,
      "count": 608,
      "max": [
        1.0,
        1.0,
        1.0
      ],
      "min": [
        -1.0,
        -1.0,
        -1.0
      ],
      "type": "VEC3"
    },
    {
      "bufferView": 1,
      "byteOffset": 384,
      "componentType": 5126,
      "count": 608,
      "max": [
        0.5985000133514404,
        0.5914999842643738
      ],
      "min": [
        -0.589510977268219,
        0.0
      ],
      "type": "VEC2"
    },
    {
      "bufferView": 0,
      "byteOffset": 432,
      "componentType": 5125,
      "count": 1680,
      "type": "SCALAR"
    },
    {
      "bufferView": 2,
      "byteOffset": 15744,
      "componentType": 5126,
      "count": 192,
      "max": [
        0.21316923201084137,
        0.4814160168170929,
        0.2571764588356018
      ],
      "min": [
        -0.21183079481124878,
        0.37860405445098877,
        -0.2673065662384033
      ],
      "type": "VEC3"
    },
    {
      "bufferView": 2,
      "byteOffset": 18048,
      "componentType": 5126,
      "count": 192,
      "max": [
        1.0,
        1.0,
        1.0
      ],
      "min": [
        -1.0,
        -1.0,
        -1.0
      ],
      "type": "VEC3"
    },
    {
      "bufferView": 1,
      "byteOffset": 5248,
      "componentType": 5126,
      "count": 192,
      "max": [
        54.098201751708984,
        37.632999420166016
      ],
      "min": [
        -20.0674991607666,
        -21.404600143432617
      ],
      "type": "VEC2"
    },
    {
      "bufferView": 0,
      "byteOffset": 7152,
      "componentType": 5125,
      "count": 360,
      "type": "SCALAR"
    },
    {
      "bufferView": 2,
      "byteOffset": 20352,
      "componentType": 5126,
      "count": 748,
      "max": [
        0.30316922068595886,
        0.80013108253479,
        0.2721764147281647
      ],
      "min": [
        -0.30183079838752747,
        0.006946052424609661,
        -0.3228236138820648
      ],
      "type": "VEC3"
    },
    {
      "bufferView": 2,
      "byteOffset": 29328,
      "componentType": 5126,
      "count": 748,
      "max": [
        1.0,
        0.9993031024932861,
        1.0
      ],
      "min": [
        -1.0,
        -1.0,
        -1.0
      ],
      "type": "VEC3"
    },
    {
      "bufferView": 1,
      "byteOffset": 6784,
      "componentType": 5126,
      "count": 748,
      "max": [
        2.016669988632202,
        0.6018930077552795
      ],
      "min": [
        -2.6614298820495605,
        -0.6018930077552795
      ],
      "type": "VEC2"
    },
    {
      "bufferView": 0,
      "byteOffset": 8592,
      "componentType": 5125,
      "count": 1692,
      "type": "SCALAR"
    }
  ],
  "asset": {
    "extras": {
      "author": "GLD-LAB. (https://sketchfab.com/gld-lab)",
      "license": "CC-BY-4.0 (http://creativecommons.org/licenses/by/4.0/)",
      "source": "https://sketchfab.com/3d-models/takasho-3d08aae1666a465989edd8ff699bcb32",
      "title": "TAKASHO ミカドダイニングチェアー"
    },
    "generator": "Sketchfab-15.61.0",
    "version": "2.0"
  },
  "bufferViews": [
    {
      "buffer": 0,
      "byteLength": 15360,
      "name": "floatBufferViews",
      "target": 34963
    },
    {
      "buffer": 0,
      "byteLength": 12768,
      "byteOffset": 15360,
      "byteStride": 8,
      "name": "floatBufferViews",
      "target": 34962
    },
    {
      "buffer": 0,
      "byteLength": 38304,
      "byteOffset": 28128,
      "byteStride": 12,
      "name": "floatBufferViews",
      "target": 34962
    }
  ],
  "buffers": [
    {
      "byteLength": 66432,
      "uri": "scene.bin"
    }
  ],
  "images": [
    {
      "uri": "textures/M_TMAsianBrown_baseColor.jpeg"
    },
    {
      "uri": "textures/M_MikadoWood_baseColor.jpeg"
    },
    {
      "uri": "textures/M_MikadoNet_baseColor.png"
    }
  ],
  "materials": [
    {
      "doubleSided": true,
      "name": "M_Black",
      "pbrMetallicRoughness": {
        "baseColorFactor": [
          0.0134097,
          0.0134097,
          0.0134097,
          1.0
        ],
        "metallicFactor": 0.0,
        "roughnessFactor": 0.5
      }
    },
    {
      "doubleSided": true,
      "name": "M_TMAsianBrown",
      "pbrMetallicRoughness": {
        "baseColorTexture": {
          "index": 0
        },
        "metallicFactor": 0.0,
        "roughnessFactor": 0.5
      }
    },
    {
      "doubleSided": true,
      "name": "M_MikadoWood",
      "pbrMetallicRoughness": {
        "baseColorTexture": {
          "index": 1
        },
        "metallicFactor": 0.0,
        "roughnessFactor": 0.5
      }
    },
    {
      "alphaMode": "BLEND",
      "name": "M_MikadoNet",
      "pbrMetallicRoughness": {
        "baseColorTexture": {
          "index": 2
        },
        "metallicFactor": 0.0
      }
    }
  ],
  "meshes": [
    {
      "name": "Object_0",
      "primitives": [
        {
          "attributes": {
            "NORMAL": 1,
            "POSITION": 0,
            "TEXCOORD_0": 2
          },
          "indices": 3,
          "material": 3,
          "mode": 4
        }
      ]
    },
    {
      "name": "Object_1",
      "primitives": [
        {
          "attributes": {
            "NORMAL": 5,
            "POSITION": 4,
            "TEXCOORD_0": 6
          },
          "indices": 7,
          "material": 0,
          "mode": 4
        }
      ]
    },
    {
      "name": "Object_2",
      "primitives": [
        {
          "attributes": {
            "NORMAL": 9,
            "POSITION": 8,
            "TEXCOORD_0": 10
          },
          "indices": 11,
          "material": 2,
          "mode": 4
        }
      ]
    },
    {
      "name": "Object_3",
      "primitives": [
        {
          "attributes": {
            "NORMAL": 13,
            "POSITION": 12,
            "TEXCOORD_0": 14
          },
          "indices": 15,
          "material": 1,
          "mode": 4
        }
      ]
    }
  ],
  "nodes": [
    {
      "children": [
        1
      ],
      "matrix": [
        1.0,
        0.0,
        0.0,
        0.0,
        0.0,
        2.220446049250313e-16,
        -1.0,
        0.0,
        0.0,
        1.0,
        2.220446049250313e-16,
        0.0,
        0.0,
        0.0,
        0.0,
        1.0
      ],
      "name": "Sketchfab_model"
    },
    {
      "children": [
        2
      ],
      "name": "root"
    },
    {
      "children": [
        3
      ],
      "matrix": [
        1.0,
        0.0,
        0.0,
        0.0,
        0.0,
        2.220446049250313e-16,
        1.0,
        0.0,
        0.0,
        -1.0,
        2.220446049250313e-16,
        0.0,
        0.0,
        0.0,
        0.0,
        1.0
      ],
      "name": "GLTF_SceneRootNode"
    },
    {
      "children": [
        4,
        5,
        6,
        7
      ],
      "name": "mikadodc_0"
    },
    {
      "mesh": 0,
      "name": "Object_4"
    },
    {
      "mesh": 1,
      "name": "Object_5"
    },
    {
      "mesh": 2,
      "name": "Object_6"
    },
    {
      "mesh": 3,
      "name": "Object_7"
    }
  ],
  "samplers": [
    {
      "magFilter": 9729,
      "minFilter": 9987,
      "wrapS": 10497,
      "wrapT": 10497
    }
  ],
  "scene": 0,
  "scenes": [
    {
      "name": "Sketchfab_Scene",
      "nodes": [
        0
      ]
    }
  ],
  "textures": [
    {
      "sampler": 0,
      "source": 0
    },
    {
      "sampler": 0,
      "source": 1
    },
    {
      "sampler": 0,
      "source": 2
    }
  ]
}