{
  "accessors": [
    {
      "bufferView": 2,
      "componentType": 5126,
      "count": 62822,
      "max": [
        2.0501599311828613,
        0.8600000143051147,
        0.6821737289428711
      ],
      "min": [
        0.4498400092124939,
        0.3400000035762787,
        5.99534287967969e-29
      ],
      "type": "VEC3"
    },
    {
      "bufferView": 2,
      "byteOffset": 753864,
      "componentType": 5126,
      "count": 62822,
      "max": [
        1.0,
        1.0,
        1.0
      ],
      "min": [
        -1.0,
        -1.0,
        -1.0
      ],
      "type": "VEC3"
    },
    {
      "bufferView": 1,
      "componentType": 5126,
      "count": 62822,
      "max": [
        6.159115791320801,
        5.29873514175415
      ],
      "min": [
        -6.122354984283447,
        -5.191720485687256
      ],
      "type": "VEC2"
    },
    {
      "bufferView": 0,
      "componentType": 5125,
      "count": 74373,
      "type": "SCALAR"
    },
    {
      "bufferView": 2,
      "byteOffset": 1507728,
      "componentType": 5126,
      "count": 5,
      "max": [
        0.7098399996757507,
        0.8600633144378662,
        0.6821737289428711
      ],
      "min": [
        0.6971799731254578,
        0.8599367141723633,
        0.6821737289428711
      ],
      "type": "VEC3"
    },
    {
      "bufferView": 2,
      "byteOffset": 1507788,
      "componentType": 5126,
      "count": 5,
      "max": [
        1.0,
        0.0,
        0.0
      ],
      "min": [
        1.0,
        0.0,
        0.0
      ],
      "type": "VEC3"
    },
    {
      "bufferView": 1,
      "byteOffset": 502576,
      "componentType": 5126,
      "count": 5,
      "max": [
        1.0,
        1.0
      ],
      "min": [
        0.0,
        0.0
      ],
      "type": "VEC2"
    },
    {
      "bufferView": 0,
      "byteOffset": 297492,
      "componentType": 5125,
      "count": 6,
      "type": "SCALAR"
    },
    {
      "bufferView": 2,
      "byteOffset": 1507848,
      "componentType": 5126,
      "count": 310,
      "max": [
        2.5,
        1.2000000476837158,
        0.7421737313270569
      ],
      "min": [
        0.0,
        0.0,
        0.6821737289428711
      ],
      "type": "VEC3"
    },
    {
      "bufferView": 2,
      "byteOffset": 1511568,
      "componentType": 5126,
      "count": 310,
      "max": [
        1.0,
        1.0,
        1.0
      ],
      "min": [
        -1.0,
        -1.0,
        -1.0
      ],
      "type": "VEC3"
    },
    {
      "bufferView": 1,
      "byteOffset": 502616,
      "componentType": 5126,
      "count": 310,
      "max": [
        1.0,
        1.0
      ],
      "min": [
        -7.671962024002887e-12,
        -3.600286735405689e-12
      ],
      "type": "VEC2"
    },
    {
      "bufferView": 0,
      "byteOffset": 297516,
      "componentType": 5125,
      "count": 657,
      "type": "SCALAR"
    }
  ],
  "asset": {
    "extras": {
      "author": "Grupo Oca (https://sketchfab.com/grupooca)",
      "license": "CC-BY-4.0 (http://creativecommons.org/licenses/by/4.0/)",
      "source": "https://sketchfab.com/3d-models/mesa-jantar-mar-adentro-america-agave-casa-3b86da0766b5474bb032ab3a20945ba0",
      "title": "MESA JANTAR MAR ADENTRO AMERICA AGAVE CASA"
    },
    "generator": "Sketchfab-15.30.0",
    "version": "2.0"
  },
  "bufferViews": [
    {
      "buffer": 0,
      "byteLength": 300144,
      "name": "floatBufferViews",
      "target": 34963
    },
    {
      "buffer": 0,
      "byteLength": 505096,
      "byteOffset": 300144,
      "byteStride": 8,
      "name": "floatBufferViews",
      "target": 34962
    },
    {
      "buffer": 0,
      "byteLength": 1515288,
      "byteOffset": 805240,
      "byteStride": 12,
      "name": "floatBufferViews",
      "target": 34962
    }
  ],
  "buffers": [
    {
      "byteLength": 2320528,
      "uri": "scene.bin"
    }
  ],
  "extensionsRequired": [
    "KHR_materials_pbrSpecularGlossiness"
  ],
  "extensionsUsed": [
    "KHR_materials_pbrSpecularGlossiness"
  ],
  "images": [
    {
      "uri": "textures/ESTRUTUR_diffuse.jpeg"
    },
    {
      "uri": "textures/ACABAMEN_diffuse.jpeg"
    }
  ],
  "materials": [
    {
      "doubleSided": true,
      "extensions": {
        "KHR_materials_pbrSpecularGlossiness": {
          "diffuseFactor": [
            1.0,
            1.0,
            1.0,
            1.0
          ],
          "diffuseTexture": {
            "index": 0
          },
          "glossinessFactor": 0.4,
          "specularFactor": [
            0.0,
            0.0,
            0.0
          ]
        }
      },
      "name": "ESTRUTUR"
    },
    {
      "doubleSided": true,
      "extensions": {
        "KHR_materials_pbrSpecularGlossiness": {
          "diffuseFactor": [
            0.0,
            0.0,
            0.0,
            1.0
          ],
          "glossinessFactor": 0.4,
          "specularFactor": [
            0.0,
            0.0,
            0.0
          ]
        }
      },
      "name": "Foregrou"
    },
    {
      "doubleSided": true,
      "extensions": {
        "KHR_materials_pbrSpecularGlossiness": {
          "diffuseFactor": [
            1.0,
            1.0,
            1.0,
            1.0
          ],
          "diffuseTexture": {
            "index": 1
          },
          "glossinessFactor": 0.4,
          "specularFactor": [
            0.0,
            0.0,
            0.0
          ]
        }
      },
      "name": "ACABAMEN"
    }
  ],
  "meshes": [
    {
      "name": "Object_0",
      "primitives": [
        {
          "attributes": {
            "NORMAL": 1,
            "POSITION": 0,
            "TEXCOORD_0": 2
          },
          "indices": 3,
          "material": 0,
          "mode": 4
        }
      ]
    },
    {
      "name": "Object_1",
      "primitives": [
        {
          "attributes": {
            "NORMAL": 5,
            "POSITION": 4,
            "TEXCOORD_0": 6
          },
          "indices": 7,
          "material": 1,
          "mode": 4
        }
      ]
    },
    {
      "name": "Object_2",
      "primitives": [
        {
          "attributes": {
            "NORMAL": 9,
            "POSITION": 8,
            "TEXCOORD_0": 10
          },
          "indices": 11,
          "material": 2,
          "mode": 4
        }
      ]
    }
  ],
  "nodes": [
    {
      "children": [
        1
      ],
      "matrix": [
        1.0,
        0.0,
        0.0,
        0.0,
        0.0,
        2.220446049250313e-16,
        -1.0,
        0.0,
        0.0,
        1.0,
        2.220446049250313e-16,
        0.0,
        0.0,
        0.0,
        0.0,
        1.0
      ],
      "name": "Sketchfab_model"
    },
    {
      "children": [
        2
      ],
      "name": "3685c8256f734c5097021a2cdc673551.3ds"
    },
    {
      "children": [
        3
      ],
      "name": "Model"
    },
    {
      "children": [
        7,
        4
      ],
      "name": "Group1"
    },
    {
      "children": [
        5,
        6
      ],
      "name": "Group2"
    },
    {
      "mesh": 0,
      "name": "Object_5"
    },
    {
      "mesh": 1,
      "name": "Object_6"
    },
    {
      "mesh": 2,
      "name": "Object_7"
    }
  ],
  "samplers": [
    {
      "magFilter": 9729,
      "minFilter": 9987,
      "wrapS": 10497,
      "wrapT": 10497
    }
  ],
  "scene": 0,
  "scenes": [
    {
      "name": "Sketchfab_Scene",
      "nodes": [
        0
      ]
    }
  ],
  "textures": [
    {
      "sampler": 0,
      "source": 0
    },
    {
      "sampler": 0,
      "source": 1
    }
  ]
}
