{
  "accessors": [
    {
      "bufferView": 2,
      "componentType": 5126,
      "count": 26692,
      "max": [
        29.60372543334961,
        41.54344940185547,
        33.35426330566406
      ],
      "min": [
        -29.60372543334961,
        0.0034334021620452404,
        -31.163469314575195
      ],
      "type": "VEC3"
    },
    {
      "bufferView": 2,
      "byteOffset": 320304,
      "componentType": 5126,
      "count": 26692,
      "max": [
        1.0,
        1.0,
        1.0
      ],
      "min": [
        -1.0,
        -1.0,
        -1.0
      ],
      "type": "VEC3"
    },
    {
      "bufferView": 1,
      "componentType": 5126,
      "count": 26692,
      "max": [
        1.00007164478302,
        1.0
      ],
      "min": [
        -7.119393558241427e-05,
        0.0
      ],
      "type": "VEC2"
    },
    {
      "bufferView": 0,
      "componentType": 5125,
      "count": 124608,
      "type": "SCALAR"
    },
    {
      "bufferView": 2,
      "byteOffset": 640608,
      "componentType": 5126,
      "count": 11042,
      "max": [
        36.85822677612305,
        77.91038513183594,
        32.34146499633789
      ],
      "min": [
        -36.783775329589844,
        37.723426818847656,
        -30.649301528930664
      ],
      "type": "VEC3"
    },
    {
      "bufferView": 2,
      "byteOffset": 773112,
      "componentType": 5126,
      "count": 11042,
      "max": [
        1.0,
        0.999918520450592,
        1.0
      ],
      "min": [
        -1.0,
        -0.999918520450592,
        -0.9999971985816956
      ],
      "type": "VEC3"
    },
    {
      "bufferView": 3,
      "componentType": 5126,
      "count": 11042,
      "max": [
        1.0,
        0.9997830986976624,
        0.9999898076057434,
        1.0
      ],
      "min": [
        -0.9999958872795105,
        -0.9998817443847656,
        -0.9999886751174927,
        -1.0
      ],
      "type": "VEC4"
    },
    {
      "bufferView": 1,
      "byteOffset": 213536,
      "componentType": 5126,
      "count": 11042,
      "max": [
        0.9209343194961548,
        0.923944890499115
      ],
      "min": [
        0.034353528171777725,
        0.042013488709926605
      ],
      "type": "VEC2"
    },
    {
      "bufferView": 1,
      "byteOffset": 301872,
      "componentType": 5126,
      "count": 11042,
      "max": [
        0.9209343194961548,
        0.923944890499115
      ],
      "min": [
        0.034353528171777725,
        0.042013488709926605
      ],
      "type": "VEC2"
    },
    {
      "bufferView": 0,
      "byteOffset": 498432,
      "componentType": 5125,
      "count": 53196,
      "type": "SCALAR"
    }
  ],
  "asset": {
    "extras": {
      "author": "Kless Gyzen (https://sketchfab.com/klessgyzen)",
      "license": "CC-BY-4.0 (http://creativecommons.org/licenses/by/4.0/)",
      "source": "https://sketchfab.com/3d-models/wicker-chair-low-poly-free-download-3c582242055b4438affeaa79c75ab36b",
      "title": "Wicker Chair Low Poly (Free Download)"
    },
    "generator": "Sketchfab-15.46.0",
    "version": "2.0"
  },
  "bufferViews": [
    {
      "buffer": 0,
      "byteLength": 711216,
      "name": "floatBufferViews",
      "target": 34963
    },
    {
      "buffer": 0,
      "byteLength": 390208,
      "byteOffset": 711216,
      "byteStride": 8,
      "name": "floatBufferViews",
      "target": 34962
    },
    {
      "buffer": 0,
      "byteLength": 905616,
      "byteOffset": 1101424,
      "byteStride": 12,
      "name": "floatBufferViews",
      "target": 34962
    },
    {
      "buffer": 0,
      "byteLength": 176672,
      "byteOffset": 2007040,
      "byteStride": 16,
      "name": "floatBufferViews",
      "target": 34962
    }
  ],
  "buffers": [
    {
      "byteLength": 2183712,
      "uri": "scene.bin"
    }
  ],
  "images": [
    {
      "uri": "textures/Wicker_chair_baseColor.png"
    },
    {
      "uri": "textures/Wicker_chair_normal.png"
    }
  ],
  "materials": [
    {
      "doubleSided": true,
      "name": "Black_metal",
      "pbrMetallicRoughness": {
        "baseColorFactor": [
          0.006195424770492917,
          0.006195424770492917,
          0.006195424770492917,
          1.0
        ],
        "metallicFactor": 0.0,
        "roughnessFactor": 0.04161791450287817
      }
    },
    {
      "alphaCutoff": 0.5231057488792692,
      "alphaMode": "MASK",
      "doubleSided": true,
      "name": "Wicker_chair",
      "normalTexture": {
        "index": 1
      },
      "pbrMetallicRoughness": {
        "baseColorTexture": {
          "index": 0
        },
        "metallicFactor": 0.0,
        "roughnessFactor": 0.40157100817363856
      }
    }
  ],
  "meshes": [
    {
      "name": "Alandhra seatting group_Black metal_0",
      "primitives": [
        {
          "attributes": {
            "NORMAL": 1,
            "POSITION": 0,
            "TEXCOORD_0": 2
          },
          "indices": 3,
          "material": 0,
          "mode": 4
        }
      ]
    },
    {
      "name": "Alandhra seatting group_Wicker chair_0",
      "primitives": [
        {
          "attributes": {
            "NORMAL": 5,
            "POSITION": 4,
            "TANGENT": 6,
            "TEXCOORD_0": 7,
            "TEXCOORD_1": 8
          },
          "indices": 9,
          "material": 1,
          "mode": 4
        }
      ]
    }
  ],
  "nodes": [
    {
      "children": [
        1
      ],
      "matrix": [
        0.9999961256980896,
        -8.291834819829154e-05,
        0.0027917465195059776,
        0.0,
        -0.0027905332390218973,
        0.012146799825131671,
        0.9999223351478577,
        0.0,
        -0.00011682269541779533,
        -0.9999262094497681,
        0.012146521359681861,
        0.0,
        0.0,
        0.0,
        0.0,
        1.0
      ],
      "name": "Sketchfab_model"
    },
    {
      "children": [
        2
      ],
      "matrix": [
        0.009999999776482582,
        0.0,
        0.0,
        0.0,
        0.0,
        -0.009999999776482582,
        0.0,
        0.0,
        0.0,
        0.0,
        -0.009999999776482582,
        0.0,
        0.0,
        0.0,
        0.0,
        1.0
      ],
      "name": "0fe8e8d88dff4b81bd34b86bb4b9a726.fbx"
    },
    {
      "children": [
        3
      ],
      "name": "RootNode"
    },
    {
      "children": [
        4,
        5
      ],
      "matrix": [
        1.0,
        0.0,
        0.0,
        0.0,
        0.0,
        2.220446049250313e-16,
        1.0,
        0.0,
        0.0,
        -1.0,
        2.220446049250313e-16,
        0.0,
        0.0,
        0.0,
        0.0,
        1.0
      ],
      "name": "Alandhra seatting group"
    },
    {
      "mesh": 0,
      "name": "Alandhra seatting group_Black metal_0"
    },
    {
      "mesh": 1,
      "name": "Alandhra seatting group_Wicker chair_0"
    }
  ],
  "samplers": [
    {
      "magFilter": 9729,
      "minFilter": 9987,
      "wrapS": 10497,
      "wrapT": 10497
    }
  ],
  "scene": 0,
  "scenes": [
    {
      "name": "Sketchfab_Scene",
      "nodes": [
        0
      ]
    }
  ],
  "textures": [
    {
      "sampler": 0,
      "source": 0
    },
    {
      "sampler": 0,
      "source": 1
    }
  ]
}
