{
  "accessors": [
    {
      "bufferView": 2,
      "componentType": 5126,
      "count": 34316,
      "max": [
        0.0012423694133758545,
        0.052927032113075256,
        0.13527444005012512
      ],
      "min": [
        -0.08145392686128616,
        -0.022985195741057396,
        -1.4901161193847656e-08
      ],
      "type": "VEC3"
    },
    {
      "bufferView": 2,
      "byteOffset": 411792,
      "componentType": 5126,
      "count": 34316,
      "max": [
        0.9996587634086609,
        0.9994701147079468,
        1.0
      ],
      "min": [
        -0.9996169805526733,
        -0.9994670748710632,
        -1.0
      ],
      "type": "VEC3"
    },
    {
      "bufferView": 3,
      "componentType": 5126,
      "count": 34316,
      "max": [
        0.9999505281448364,
        0.9989956021308899,
        0.9999104738235474,
        1.0
      ],
      "min": [
        -0.9999809861183167,
        -0.999850332736969,
        -0.9999973177909851,
        -1.0
      ],
      "type": "VEC4"
    },
    {
      "bufferView": 1,
      "componentType": 5126,
      "count": 34316,
      "max": [
        0.9978659152984619,
        0.998132050037384
      ],
      "min": [
        0.0018680273788049817,
        0.001867987564764917
      ],
      "type": "VEC2"
    },
    {
      "bufferView": 0,
      "componentType": 5125,
      "count": 60186,
      "type": "SCALAR"
    },
    {
      "bufferView": 2,
      "byteOffset": 823584,
      "componentType": 5126,
      "count": 34316,
      "max": [
        0.12399065494537354,
        0.0754234567284584,
        0.19892530143260956
      ],
      "min": [
        0.0020057298243045807,
        -0.036554351449012756,
        -0.0006174221634864807
      ],
      "type": "VEC3"
    },
    {
      "bufferView": 2,
      "byteOffset": 1235376,
      "componentType": 5126,
      "count": 34316,
      "max": [
        0.9996594190597534,
        0.9994699358940125,
        1.0
      ],
      "min": [
        -0.9996164441108704,
        -0.9994671940803528,
        -1.0
      ],
      "type": "VEC3"
    },
    {
      "bufferView": 3,
      "byteOffset": 549056,
      "componentType": 5126,
      "count": 34316,
      "max": [
        0.9999505281448364,
        0.9989955425262451,
        0.9999105930328369,
        1.0
      ],
      "min": [
        -0.9999809265136719,
        -0.999825119972229,
        -0.9999973177909851,
        -1.0
      ],
      "type": "VEC4"
    },
    {
      "bufferView": 1,
      "byteOffset": 274528,
      "componentType": 5126,
      "count": 34316,
      "max": [
        0.9978659152984619,
        0.998132050037384
      ],
      "min": [
        0.0018680273788049817,
        0.001867987564764917
      ],
      "type": "VEC2"
    },
    {
      "bufferView": 0,
      "byteOffset": 240744,
      "componentType": 5125,
      "count": 60186,
      "type": "SCALAR"
    }
  ],
  "asset": {
    "extras": {
      "author": "Anom Purple Modelling (https://sketchfab.com/Anom404)",
      "license": "SKETCHFAB Standard (https://sketchfab.com/licenses)",
      "source": "https://sketchfab.com/3d-models/plants-69352f0a90e94a0a9173b989e41acfc9",
      "title": "Plants"
    },
    "generator": "Sketchfab-15.58.0",
    "version": "2.0"
  },
  "bufferViews": [
    {
      "buffer": 0,
      "byteLength": 481488,
      "name": "floatBufferViews",
      "target": 34963
    },
    {
      "buffer": 0,
      "byteLength": 549056,
      "byteOffset": 481488,
      "byteStride": 8,
      "name": "floatBufferViews",
      "target": 34962
    },
    {
      "buffer": 0,
      "byteLength": 1647168,
      "byteOffset": 1030544,
      "byteStride": 12,
      "name": "floatBufferViews",
      "target": 34962
    },
    {
      "buffer": 0,
      "byteLength": 1098112,
      "byteOffset": 2677712,
      "byteStride": 16,
      "name": "floatBufferViews",
      "target": 34962
    }
  ],
  "buffers": [
    {
      "byteLength": 3775824,
      "uri": "scene.bin"
    }
  ],
  "images": [
    {
      "uri": "textures/Materiais.001_baseColor.png"
    },
    {
      "uri": "textures/Materiais.001_metallicRoughness.png"
    },
    {
      "uri": "textures/Materiais.001_normal.png"
    },
    {
      "uri": "textures/Materiais.004_baseColor.png"
    },
    {
      "uri": "textures/Materiais.004_metallicRoughness.png"
    },
    {
      "uri": "textures/Materiais.004_normal.png"
    }
  ],
  "materials": [
    {
      "doubleSided": true,
      "name": "Materiais.001",
      "normalTexture": {
        "index": 2
      },
      "occlusionTexture": {
        "index": 1
      },
      "pbrMetallicRoughness": {
        "baseColorTexture": {
          "index": 0
        },
        "metallicFactor": 0.0,
        "metallicRoughnessTexture": {
          "index": 1
        }
      }
    },
    {
      "doubleSided": true,
      "name": "Materiais.004",
      "normalTexture": {
        "index": 5
      },
      "occlusionTexture": {
        "index": 4
      },
      "pbrMetallicRoughness": {
        "baseColorTexture": {
          "index": 3
        },
        "metallicFactor": 0.0,
        "metallicRoughnessTexture": {
          "index": 4
        }
      }
    }
  ],
  "meshes": [
    {
      "name": "Plano.002_Materiais.001_0",
      "primitives": [
        {
          "attributes": {
            "NORMAL": 1,
            "POSITION": 0,
            "TANGENT": 2,
            "TEXCOORD_0": 3
          },
          "indices": 4,
          "material": 0,
          "mode": 4
        }
      ]
    },
    {
      "name": "Plano.001_Materiais.004_0",
      "primitives": [
        {
          "attributes": {
            "NORMAL": 6,
            "POSITION": 5,
            "TANGENT": 7,
            "TEXCOORD_0": 8
          },
          "indices": 9,
          "material": 1,
          "mode": 4
        }
      ]
    }
  ],
  "nodes": [
    {
      "children": [
        1
      ],
      "matrix": [
        1.0,
        0.0,
        0.0,
        0.0,
        0.0,
        2.220446049250313e-16,
        -1.0,
        0.0,
        0.0,
        1.0,
        2.220446049250313e-16,
        0.0,
        0.0,
        0.0,
        0.0,
        1.0
      ],
      "name": "Sketchfab_model"
    },
    {
      "children": [
        2
      ],
      "matrix": [
        0.009999999776482582,
        0.0,
        0.0,
        0.0,
        0.0,
        0.0,
        0.009999999776482582,
        0.0,
        0.0,
        -0.009999999776482582,
        0.0,
        0.0,
        0.0,
        0.0,
        0.0,
        1.0
      ],
      "name": "c8937cc8d09b4deaad75fb822b798c8b.fbx"
    },
    {
      "children": [
        3,
        5
      ],
      "name": "RootNode"
    },
    {
      "children": [
        4
      ],
      "matrix": [
        100.0,
        0.0,
        0.0,
        0.0,
        0.0,
        -1.629206793918314e-05,
        -99.99999999999868,
        0.0,
        0.0,
        99.99999999999868,
        -1.629206793918314e-05,
        0.0,
        0.0,
        0.0,
        0.0,
        1.0
      ],
      "name": "Plano.002"
    },
    {
      "mesh": 0,
      "name": "Plano.002_Materiais.001_0"
    },
    {
      "children": [
        6
      ],
      "matrix": [
        100.0,
        0.0,
        0.0,
        0.0,
        0.0,
        -1.629206793918314e-05,
        -99.99999999999868,
        0.0,
        0.0,
        99.99999999999868,
        -1.629206793918314e-05,
        0.0,
        0.0,
        0.0,
        0.0,
        1.0
      ],
      "name": "Plano.001"
    },
    {
      "mesh": 1,
      "name": "Plano.001_Materiais.004_0"
    }
  ],
  "samplers": [
    {
      "magFilter": 9729,
      "minFilter": 9987,
      "wrapS": 10497,
      "wrapT": 10497
    }
  ],
  "scene": 0,
  "scenes": [
    {
      "name": "Sketchfab_Scene",
      "nodes": [
        0
      ]
    }
  ],
  "textures": [
    {
      "sampler": 0,
      "source": 0
    },
    {
      "sampler": 0,
      "source": 1
    },
    {
      "sampler": 0,
      "source": 2
    },
    {
      "sampler": 0,
      "source": 3
    },
    {
      "sampler": 0,
      "source": 4
    },
    {
      "sampler": 0,
      "source": 5
    }
  ]
}
