{
	"asset":{
		"generator":"Khronos glTF Blender I/O v4.0.44",
		"version":"2.0"
	},
	"scene":0,
	"scenes":[
		{
			"name":"Scene",
			"nodes":[
				5
			]
		}
	],
	"nodes":[
		{
			"mesh":0,
			"name":"Object_4"
		},
		{
			"mesh":1,
			"name":"Object_5"
		},
		{
			"children":[
				0,
				1
			],
			"name":"ESTRUTURA"
		},
		{
			"children":[
				2
			],
			"name":"Model"
		},
		{
			"children":[
				3
			],
			"name":"b1ba88aacda44281a32e80e17450e4a3.3ds"
		},
		{
			"children":[
				4
			],
			"name":"Sketchfab_model",
			"rotation":[
				-0.70710688829422,
				0,
				0,
				0.7071066498756409
			],
			"translation":[
				-1.2999999523162842,
				0,
				0.4999999701976776
			]
		}
	],
	"materials":[
		{
			"doubleSided":true,
			"name":"ESTRUTUR",
			"pbrMetallicRoughness":{}
		}
	],
	"meshes":[
		{
			"name":"Object_0",
			"primitives":[
				{
					"attributes":{
						"POSITION":0,
						"NORMAL":1,
						"TEXCOORD_0":2
					},
					"indices":3,
					"material":0
				}
			]
		},
		{
			"name":"Object_1",
			"primitives":[
				{
					"attributes":{
						"POSITION":4,
						"NORMAL":5,
						"TEXCOORD_0":6
					},
					"indices":7,
					"material":0
				}
			]
		}
	],
	"accessors":[
		{
			"bufferView":0,
			"componentType":5126,
			"count":9434,
			"max":[
				2.601803779602051,
				1.1072551012039185,
				0.7699998617172241
			],
			"min":[
				2.6645352591003757e-15,
				-1.7763568394002505e-15,
				7.642087421827948e-17
			],
			"type":"VEC3"
		},
		{
			"bufferView":1,
			"componentType":5126,
			"count":9434,
			"type":"VEC3"
		},
		{
			"bufferView":2,
			"componentType":5126,
			"count":9434,
			"type":"VEC2"
		},
		{
			"bufferView":3,
			"componentType":5123,
			"count":25356,
			"type":"SCALAR"
		},
		{
			"bufferView":4,
			"componentType":5126,
			"count":4027,
			"max":[
				2.601803779602051,
				1.1072551012039185,
				0.7699998617172241
			],
			"min":[
				0.000356390664819628,
				0.15425781905651093,
				0.06113441288471222
			],
			"type":"VEC3"
		},
		{
			"bufferView":5,
			"componentType":5126,
			"count":4027,
			"type":"VEC3"
		},
		{
			"bufferView":6,
			"componentType":5126,
			"count":4027,
			"type":"VEC2"
		},
		{
			"bufferView":7,
			"componentType":5123,
			"count":6468,
			"type":"SCALAR"
		}
	],
	"bufferViews":[
		{
			"buffer":0,
			"byteLength":113208,
			"byteOffset":0,
			"target":34962
		},
		{
			"buffer":0,
			"byteLength":113208,
			"byteOffset":113208,
			"target":34962
		},
		{
			"buffer":0,
			"byteLength":75472,
			"byteOffset":226416,
			"target":34962
		},
		{
			"buffer":0,
			"byteLength":50712,
			"byteOffset":301888,
			"target":34963
		},
		{
			"buffer":0,
			"byteLength":48324,
			"byteOffset":352600,
			"target":34962
		},
		{
			"buffer":0,
			"byteLength":48324,
			"byteOffset":400924,
			"target":34962
		},
		{
			"buffer":0,
			"byteLength":32216,
			"byteOffset":449248,
			"target":34962
		},
		{
			"buffer":0,
			"byteLength":12936,
			"byteOffset":481464,
			"target":34963
		}
	],
	"buffers":[
		{
			"byteLength":494400,
			"uri":"scene.bin"
		}
	]
}
