{
	"asset":{
		"generator":"Khronos glTF Blender I/O v4.0.44",
		"version":"2.0"
	},
	"scene":0,
	"scenes":[
		{
			"name":"Scene",
			"nodes":[
				0,
				1,
				2
			]
		}
	],
	"nodes":[
		{
			"mesh":0,
			"name":"Plane.001",
			"scale":[
				20.188732147216797,
				20.188732147216797,
				20.188732147216797
			],
			"translation":[
				0,
				0.16987895965576172,
				0
			]
		},
		{
			"mesh":1,
			"name":"indoor plant_02",
			"rotation":[
				0,
				0.9247599840164185,
				0,
				0.3805508613586426
			],
			"translation":[
				0,
				0.16987895965576172,
				0
			]
		},
		{
			"mesh":2,
			"name":"Plane",
			"rotation":[
				0.7071068286895752,
				0,
				0,
				0.7071068286895752
			],
			"translation":[
				-3.6409623622894287,
				-0.29291200637817383,
				0.5149011015892029
			]
		}
	],
	"materials":[
		{
			"doubleSided":true,
			"name":"Material.003",
			"pbrMetallicRoughness":{
				"baseColorFactor":[
					0.800000011920929,
					0.800000011920929,
					0.800000011920929,
					1
				],
				"metallicFactor":0,
				"roughnessFactor":0.5
			}
		},
		{
			"doubleSided":true,
			"name":"IDP_root",
			"pbrMetallicRoughness":{
				"baseColorFactor":[
					0.800000011920929,
					0.800000011920929,
					0.800000011920929,
					1
				],
				"metallicFactor":0,
				"roughnessFactor":0.5
			}
		},
		{
			"doubleSided":true,
			"name":"IDP_ground",
			"pbrMetallicRoughness":{
				"baseColorFactor":[
					0.800000011920929,
					0.800000011920929,
					0.800000011920929,
					1
				],
				"metallicFactor":0,
				"roughnessFactor":0.5
			}
		},
		{
			"doubleSided":true,
			"name":"IDP_leaves",
			"pbrMetallicRoughness":{
				"baseColorFactor":[
					0.800000011920929,
					0.800000011920929,
					0.800000011920929,
					1
				],
				"metallicFactor":0,
				"roughnessFactor":0.5
			}
		},
		{
			"doubleSided":true,
			"name":"IDP_Pot",
			"pbrMetallicRoughness":{
				"baseColorFactor":[
					0.800000011920929,
					0.800000011920929,
					0.800000011920929,
					1
				],
				"metallicFactor":0,
				"roughnessFactor":0.5
			}
		},
		{
			"doubleSided":true,
			"name":"Material.006",
			"pbrMetallicRoughness":{
				"baseColorFactor":[
					0.800000011920929,
					0.800000011920929,
					0.800000011920929,
					1
				],
				"metallicFactor":0,
				"roughnessFactor":0.5
			}
		}
	],
	"meshes":[
		{
			"name":"Plane",
			"primitives":[
				{
					"attributes":{
						"POSITION":0,
						"NORMAL":1
					},
					"indices":2,
					"material":0
				}
			]
		},
		{
			"name":"indoor plant_02",
			"primitives":[
				{
					"attributes":{
						"POSITION":3,
						"NORMAL":4,
						"TEXCOORD_0":5
					},
					"indices":6,
					"material":1
				},
				{
					"attributes":{
						"POSITION":7,
						"NORMAL":8,
						"TEXCOORD_0":9
					},
					"indices":10,
					"material":2
				},
				{
					"attributes":{
						"POSITION":11,
						"NORMAL":12,
						"TEXCOORD_0":13
					},
					"indices":14,
					"material":3
				},
				{
					"attributes":{
						"POSITION":15,
						"NORMAL":16,
						"TEXCOORD_0":17
					},
					"indices":18,
					"material":4
				}
			]
		},
		{
			"name":"Plane.001",
			"primitives":[
				{
					"attributes":{
						"POSITION":19,
						"NORMAL":20,
						"TEXCOORD_0":21
					},
					"indices":22,
					"material":5
				}
			]
		}
	],
	"accessors":[
		{
			"bufferView":0,
			"componentType":5126,
			"count":4,
			"max":[
				1,
				0,
				1
			],
			"min":[
				-1,
				0,
				-1
			],
			"type":"VEC3"
		},
		{
			"bufferView":1,
			"componentType":5126,
			"count":4,
			"type":"VEC3"
		},
		{
			"bufferView":2,
			"componentType":5123,
			"count":6,
			"type":"SCALAR"
		},
		{
			"bufferView":3,
			"componentType":5126,
			"count":500,
			"max":[
				0.8678785562515259,
				2.875117778778076,
				0.8758270144462585
			],
			"min":[
				-0.8678785562515259,
				0.03753089904785156,
				-0.8758267164230347
			],
			"type":"VEC3"
		},
		{
			"bufferView":4,
			"componentType":5126,
			"count":500,
			"type":"VEC3"
		},
		{
			"bufferView":5,
			"componentType":5126,
			"count":500,
			"type":"VEC2"
		},
		{
			"bufferView":6,
			"componentType":5123,
			"count":2460,
			"type":"SCALAR"
		},
		{
			"bufferView":7,
			"componentType":5126,
			"count":369,
			"max":[
				0.7290898561477661,
				1.699798345565796,
				0.7359679937362671
			],
			"min":[
				-0.7290898561477661,
				1.612919807434082,
				-0.7359679937362671
			],
			"type":"VEC3"
		},
		{
			"bufferView":8,
			"componentType":5126,
			"count":369,
			"type":"VEC3"
		},
		{
			"bufferView":9,
			"componentType":5126,
			"count":369,
			"type":"VEC2"
		},
		{
			"bufferView":10,
			"componentType":5123,
			"count":2112,
			"type":"SCALAR"
		},
		{
			"bufferView":11,
			"componentType":5126,
			"count":505,
			"max":[
				2.9950292110443115,
				6.214069366455078,
				2.74112868309021
			],
			"min":[
				-3.2671730518341064,
				2.3675880432128906,
				-2.809786558151245
			],
			"type":"VEC3"
		},
		{
			"bufferView":12,
			"componentType":5126,
			"count":505,
			"type":"VEC3"
		},
		{
			"bufferView":13,
			"componentType":5126,
			"count":505,
			"type":"VEC2"
		},
		{
			"bufferView":14,
			"componentType":5123,
			"count":2760,
			"type":"SCALAR"
		},
		{
			"bufferView":15,
			"componentType":5126,
			"count":184,
			"max":[
				0.895893931388855,
				1.680260181427002,
				0.8958937525749207
			],
			"min":[
				-0.895893931388855,
				-0.009351491928100586,
				-0.895893931388855
			],
			"type":"VEC3"
		},
		{
			"bufferView":16,
			"componentType":5126,
			"count":184,
			"type":"VEC3"
		},
		{
			"bufferView":17,
			"componentType":5126,
			"count":184,
			"type":"VEC2"
		},
		{
			"bufferView":18,
			"componentType":5123,
			"count":912,
			"type":"SCALAR"
		},
		{
			"bufferView":19,
			"componentType":5126,
			"count":15,
			"max":[
				1.295029878616333,
				1.539035565656377e-06,
				0.05803871154785156
			],
			"min":[
				-1.0849281549453735,
				-3.365960310475202e-08,
				-9.436098098754883
			],
			"type":"VEC3"
		},
		{
			"bufferView":20,
			"componentType":5126,
			"count":15,
			"type":"VEC3"
		},
		{
			"bufferView":21,
			"componentType":5126,
			"count":15,
			"type":"VEC2"
		},
		{
			"bufferView":22,
			"componentType":5123,
			"count":48,
			"type":"SCALAR"
		}
	],
	"bufferViews":[
		{
			"buffer":0,
			"byteLength":48,
			"byteOffset":0,
			"target":34962
		},
		{
			"buffer":0,
			"byteLength":48,
			"byteOffset":48,
			"target":34962
		},
		{
			"buffer":0,
			"byteLength":12,
			"byteOffset":96,
			"target":34963
		},
		{
			"buffer":0,
			"byteLength":6000,
			"byteOffset":108,
			"target":34962
		},
		{
			"buffer":0,
			"byteLength":6000,
			"byteOffset":6108,
			"target":34962
		},
		{
			"buffer":0,
			"byteLength":4000,
			"byteOffset":12108,
			"target":34962
		},
		{
			"buffer":0,
			"byteLength":4920,
			"byteOffset":16108,
			"target":34963
		},
		{
			"buffer":0,
			"byteLength":4428,
			"byteOffset":21028,
			"target":34962
		},
		{
			"buffer":0,
			"byteLength":4428,
			"byteOffset":25456,
			"target":34962
		},
		{
			"buffer":0,
			"byteLength":2952,
			"byteOffset":29884,
			"target":34962
		},
		{
			"buffer":0,
			"byteLength":4224,
			"byteOffset":32836,
			"target":34963
		},
		{
			"buffer":0,
			"byteLength":6060,
			"byteOffset":37060,
			"target":34962
		},
		{
			"buffer":0,
			"byteLength":6060,
			"byteOffset":43120,
			"target":34962
		},
		{
			"buffer":0,
			"byteLength":4040,
			"byteOffset":49180,
			"target":34962
		},
		{
			"buffer":0,
			"byteLength":5520,
			"byteOffset":53220,
			"target":34963
		},
		{
			"buffer":0,
			"byteLength":2208,
			"byteOffset":58740,
			"target":34962
		},
		{
			"buffer":0,
			"byteLength":2208,
			"byteOffset":60948,
			"target":34962
		},
		{
			"buffer":0,
			"byteLength":1472,
			"byteOffset":63156,
			"target":34962
		},
		{
			"buffer":0,
			"byteLength":1824,
			"byteOffset":64628,
			"target":34963
		},
		{
			"buffer":0,
			"byteLength":180,
			"byteOffset":66452,
			"target":34962
		},
		{
			"buffer":0,
			"byteLength":180,
			"byteOffset":66632,
			"target":34962
		},
		{
			"buffer":0,
			"byteLength":120,
			"byteOffset":66812,
			"target":34962
		},
		{
			"buffer":0,
			"byteLength":96,
			"byteOffset":66932,
			"target":34963
		}
	],
	"buffers":[
		{
			"byteLength":67028,
			"uri":"indoor%20plant_02.bin"
		}
	]
}
