{
  "accessors": [
    {
      "bufferView": 2,
      "componentType": 5126,
      "count": 944,
      "max": [
        0.9999999403953552,
        0.38644275069236755,
        0.35593411326408386
      ],
      "min": [
        -0.9999999403953552,
        -0.38644275069236755,
        -0.35593411326408386
      ],
      "type": "VEC3"
    },
    {
      "bufferView": 2,
      "byteOffset": 11328,
      "componentType": 5126,
      "count": 944,
      "max": [
        1.0,
        0.990365207195282,
        0.9904037714004517
      ],
      "min": [
        -1.0,
        -0.990365207195282,
        -0.9904037714004517
      ],
      "type": "VEC3"
    },
    {
      "bufferView": 3,
      "componentType": 5126,
      "count": 944,
      "max": [
        0.9999488592147827,
        1.0,
        0.9960854053497314,
        1.0
      ],
      "min": [
        -0.9999489188194275,
        -1.0,
        -0.9960853457450867,
        -1.0
      ],
      "type": "VEC4"
    },
    {
      "bufferView": 1,
      "componentType": 5126,
      "count": 944,
      "max": [
        0.9731000065803528,
        1.003600001335144
      ],
      "min": [
        -0.09640000015497208,
        -0.0012999773025512695
      ],
      "type": "VEC2"
    },
    {
      "bufferView": 1,
      "byteOffset": 7552,
      "componentType": 5126,
      "count": 944,
      "max": [
        0.9731000065803528,
        1.003600001335144
      ],
      "min": [
        -0.09640000015497208,
        -0.0012999773025512695
      ],
      "type": "VEC2"
    },
    {
      "bufferView": 1,
      "byteOffset": 15104,
      "componentType": 5126,
      "count": 944,
      "max": [
        0.9731000065803528,
        1.003600001335144
      ],
      "min": [
        -0.09640000015497208,
        -0.0012999773025512695
      ],
      "type": "VEC2"
    },
    {
      "bufferView": 1,
      "byteOffset": 22656,
      "componentType": 5126,
      "count": 944,
      "max": [
        0.9731000065803528,
        1.003600001335144
      ],
      "min": [
        -0.09640000015497208,
        -0.0012999773025512695
      ],
      "type": "VEC2"
    },
    {
      "bufferView": 1,
      "byteOffset": 30208,
      "componentType": 5126,
      "count": 944,
      "max": [
        0.9731000065803528,
        1.003600001335144
      ],
      "min": [
        -0.09640000015497208,
        -0.0012999773025512695
      ],
      "type": "VEC2"
    },
    {
      "bufferView": 0,
      "componentType": 5125,
      "count": 2520,
      "type": "SCALAR"
    }
  ],
  "asset": {
    "extras": {
      "author": "hseinbitar (https://sketchfab.com/hseinbitar)",
      "license": "CC-BY-NC-ND-4.0 (http://creativecommons.org/licenses/by-nc-nd/4.0/)",
      "source": "https://sketchfab.com/3d-models/simple-frame-table-with-books-3e9c805ce066418481fc868f88fa94ff",
      "title": "Simple Frame Table with books"
    },
    "generator": "Sketchfab-12.66.0",
    "version": "2.0"
  },
  "bufferViews": [
    {
      "buffer": 0,
      "byteLength": 10080,
      "name": "floatBufferViews",
      "target": 34963
    },
    {
      "buffer": 0,
      "byteLength": 37760,
      "byteOffset": 10080,
      "byteStride": 8,
      "name": "floatBufferViews",
      "target": 34962
    },
    {
      "buffer": 0,
      "byteLength": 22656,
      "byteOffset": 47840,
      "byteStride": 12,
      "name": "floatBufferViews",
      "target": 34962
    },
    {
      "buffer": 0,
      "byteLength": 15104,
      "byteOffset": 70496,
      "byteStride": 16,
      "name": "floatBufferViews",
      "target": 34962
    }
  ],
  "buffers": [
    {
      "byteLength": 85600,
      "uri": "scene.bin"
    }
  ],
  "images": [
    {
      "uri": "textures/wire_225088199_baseColor.png"
    },
    {
      "uri": "textures/wire_225088199_metallicRoughness.png"
    },
    {
      "uri": "textures/wire_225088199_normal.png"
    }
  ],
  "materials": [
    {
      "name": "wire_225088199",
      "normalTexture": {
        "index": 2
      },
      "occlusionTexture": {
        "index": 1
      },
      "pbrMetallicRoughness": {
        "baseColorTexture": {
          "index": 0
        },
        "metallicRoughnessTexture": {
          "index": 1
        }
      }
    }
  ],
  "meshes": [
    {
      "name": "Object_0",
      "primitives": [
        {
          "attributes": {
            "NORMAL": 1,
            "POSITION": 0,
            "TANGENT": 2,
            "TEXCOORD_0": 3,
            "TEXCOORD_1": 4,
            "TEXCOORD_2": 5,
            "TEXCOORD_3": 6,
            "TEXCOORD_4": 7
          },
          "indices": 8,
          "material": 0,
          "mode": 4
        }
      ]
    }
  ],
  "nodes": [
    {
      "children": [
        1
      ],
      "matrix": [
        1.0,
        0.0,
        0.0,
        0.0,
        0.0,
        2.220446049250313e-16,
        -1.0,
        0.0,
        0.0,
        1.0,
        2.220446049250313e-16,
        0.0,
        0.0,
        0.0,
        0.0,
        1.0
      ],
      "name": "Sketchfab_model"
    },
    {
      "children": [
        2
      ],
      "name": "root"
    },
    {
      "children": [
        3
      ],
      "matrix": [
        1.0,
        0.0,
        0.0,
        0.0,
        0.0,
        2.220446049250313e-16,
        1.0,
        0.0,
        0.0,
        -1.0,
        2.220446049250313e-16,
        0.0,
        0.0,
        0.0,
        0.0,
        1.0
      ],
      "name": "GLTF_SceneRootNode"
    },
    {
      "children": [
        4
      ],
      "matrix": [
        49.16640090942383,
        0.0,
        0.0,
        0.0,
        0.0,
        49.16640090942383,
        0.0,
        0.0,
        0.0,
        0.0,
        49.16640090942383,
        0.0,
        0.0,
        19.0,
        0.0,
        1.0
      ],
      "name": "try%20gltf.obj_0"
    },
    {
      "children": [
        5
      ],
      "name": "g Box002_1"
    },
    {
      "children": [
        6
      ],
      "name": "Box002_2"
    },
    {
      "mesh": 0,
      "name": "Object_6"
    }
  ],
  "samplers": [
    {
      "magFilter": 9729,
      "minFilter": 9987,
      "wrapS": 10497,
      "wrapT": 10497
    }
  ],
  "scene": 0,
  "scenes": [
    {
      "name": "Sketchfab_Scene",
      "nodes": [
        0
      ]
    }
  ],
  "textures": [
    {
      "sampler": 0,
      "source": 0
    },
    {
      "sampler": 0,
      "source": 1
    },
    {
      "sampler": 0,
      "source": 2
    }
  ]
}
