{
  "accessors": [
    {
      "bufferView": 2,
      "componentType": 5126,
      "count": 9818,
      "max": [
        0.81148761510849,
        0.9736970067024231,
        0.8104733228683472
      ],
      "min": [
        0.0,
        0.0,
        -1.0842021724855044e-19
      ],
      "type": "VEC3"
    },
    {
      "bufferView": 2,
      "byteOffset": 117816,
      "componentType": 5126,
      "count": 9818,
      "max": [
        1.0,
        1.0,
        1.0
      ],
      "min": [
        -0.9999838471412659,
        -0.9999999403953552,
        -0.9999996423721313
      ],
      "type": "VEC3"
    },
    {
      "bufferView": 1,
      "componentType": 5126,
      "count": 9818,
      "max": [
        0.26047420501708984,
        0.9995543360710144
      ],
      "min": [
        0.00010490395652595907,
        0.00012705115659628063
      ],
      "type": "VEC2"
    },
    {
      "bufferView": 0,
      "componentType": 5125,
      "count": 23496,
      "type": "SCALAR"
    },
    {
      "bufferView": 2,
      "byteOffset": 235632,
      "componentType": 5126,
      "count": 5886,
      "max": [
        0.7787691950798035,
        0.9517932534217834,
        0.7918730974197388
      ],
      "min": [
        0.0331014022231102,
        0.017865685746073723,
        0.016105379909276962
      ],
      "type": "VEC3"
    },
    {
      "bufferView": 2,
      "byteOffset": 306264,
      "componentType": 5126,
      "count": 5886,
      "max": [
        1.0,
        0.9998912811279297,
        0.9999911189079285
      ],
      "min": [
        -1.0,
        -0.9999147057533264,
        -0.999990701675415
      ],
      "type": "VEC3"
    },
    {
      "bufferView": 1,
      "byteOffset": 78544,
      "componentType": 5126,
      "count": 5886,
      "max": [
        59.08201599121094,
        90.63145446777344
      ],
      "min": [
        -57.900997161865234,
        -42.869911193847656
      ],
      "type": "VEC2"
    },
    {
      "bufferView": 0,
      "byteOffset": 93984,
      "componentType": 5125,
      "count": 5886,
      "type": "SCALAR"
    },
    {
      "bufferView": 2,
      "byteOffset": 376896,
      "componentType": 5126,
      "count": 9969,
      "max": [
        0.7645296454429626,
        0.9343991875648499,
        0.7854016423225403
      ],
      "min": [
        0.04714026674628258,
        0.025334324687719345,
        0.022620534524321556
      ],
      "type": "VEC3"
    },
    {
      "bufferView": 2,
      "byteOffset": 496524,
      "componentType": 5126,
      "count": 9969,
      "max": [
        1.0,
        1.0,
        1.0
      ],
      "min": [
        -0.06701994687318802,
        -0.911521315574646,
        -0.9998376965522766
      ],
      "type": "VEC3"
    },
    {
      "bufferView": 1,
      "byteOffset": 125632,
      "componentType": 5126,
      "count": 9969,
      "max": [
        572.3060302734375,
        925.613525390625
      ],
      "min": [
        -572.431884765625,
        -533.3397827148438
      ],
      "type": "VEC2"
    },
    {
      "bufferView": 0,
      "byteOffset": 117528,
      "componentType": 5125,
      "count": 9969,
      "type": "SCALAR"
    },
    {
      "bufferView": 2,
      "byteOffset": 616152,
      "componentType": 5126,
      "count": 9999,
      "max": [
        0.7645323276519775,
        0.9453378319740295,
        0.7854016423225403
      ],
      "min": [
        0.04713330790400505,
        0.024918798357248306,
        0.022606737911701202
      ],
      "type": "VEC3"
    },
    {
      "bufferView": 2,
      "byteOffset": 736140,
      "componentType": 5126,
      "count": 9999,
      "max": [
        1.0,
        1.0,
        1.0
      ],
      "min": [
        -0.05168810486793518,
        -0.9987815618515015,
        -0.999935507774353
      ],
      "type": "VEC3"
    },
    {
      "bufferView": 1,
      "byteOffset": 205384,
      "componentType": 5126,
      "count": 9999,
      "max": [
        583.6353149414063,
        941.834716796875
      ],
      "min": [
        -582.6866455078125,
        -570.7511596679688
      ],
      "type": "VEC2"
    },
    {
      "bufferView": 0,
      "byteOffset": 157404,
      "componentType": 5125,
      "count": 9999,
      "type": "SCALAR"
    },
    {
      "bufferView": 2,
      "byteOffset": 856128,
      "componentType": 5126,
      "count": 9862,
      "max": [
        0.7645303606987,
        0.9258900284767151,
        0.7637292146682739
      ],
      "min": [
        0.04714637249708176,
        0.03346052020788193,
        0.02365686744451523
      ],
      "type": "VEC3"
    },
    {
      "bufferView": 2,
      "byteOffset": 974472,
      "componentType": 5126,
      "count": 9862,
      "max": [
        1.0,
        1.0,
        1.0
      ],
      "min": [
        -0.08999894559383392,
        -0.9005800485610962,
        -0.999888002872467
      ],
      "type": "VEC3"
    },
    {
      "bufferView": 1,
      "byteOffset": 285376,
      "componentType": 5126,
      "count": 9862,
      "max": [
        564.1610717773438,
        941.6312866210938
      ],
      "min": [
        -552.584716796875,
        -518.1828002929688
      ],
      "type": "VEC2"
    },
    {
      "bufferView": 0,
      "byteOffset": 197400,
      "componentType": 5125,
      "count": 9864,
      "type": "SCALAR"
    },
    {
      "bufferView": 2,
      "byteOffset": 1092816,
      "componentType": 5126,
      "count": 5398,
      "max": [
        0.764525294303894,
        0.9006395936012268,
        0.7240380644798279
      ],
      "min": [
        0.04714472219347954,
        0.033456459641456604,
        0.023644037544727325
      ],
      "type": "VEC3"
    },
    {
      "bufferView": 2,
      "byteOffset": 1157592,
      "componentType": 5126,
      "count": 5398,
      "max": [
        1.0,
        1.0,
        1.0
      ],
      "min": [
        -0.045076385140419006,
        -0.9220999479293823,
        -0.9996015429496765
      ],
      "type": "VEC3"
    },
    {
      "bufferView": 1,
      "byteOffset": 364272,
      "componentType": 5126,
      "count": 5398,
      "max": [
        574.8392944335938,
        843.7352905273438
      ],
      "min": [
        -561.7654418945313,
        -462.87652587890625
      ],
      "type": "VEC2"
    },
    {
      "bufferView": 0,
      "byteOffset": 236856,
      "componentType": 5125,
      "count": 5400,
      "type": "SCALAR"
    }
  ],
  "asset": {
    "extras": {
      "author": "Grupo Oca (https://sketchfab.com/grupooca)",
      "license": "CC-BY-4.0 (http://creativecommons.org/licenses/by/4.0/)",
      "source": "https://sketchfab.com/3d-models/poltrona-vazio-madeira-america-agave-casa-681c3b8bcfec4ae3901d45e82e288358",
      "title": "POLTRONA VAZIO MADEIRA AMERICA AGAVE CASA"
    },
    "generator": "Sketchfab-15.53.0",
    "version": "2.0"
  },
  "bufferViews": [
    {
      "buffer": 0,
      "byteLength": 258456,
      "name": "floatBufferViews",
      "target": 34963
    },
    {
      "buffer": 0,
      "byteLength": 407456,
      "byteOffset": 258456,
      "byteStride": 8,
      "name": "floatBufferViews",
      "target": 34962
    },
    {
      "buffer": 0,
      "byteLength": 1222368,
      "byteOffset": 665912,
      "byteStride": 12,
      "name": "floatBufferViews",
      "target": 34962
    }
  ],
  "buffers": [
    {
      "byteLength": 1888280,
      "uri": "scene.bin"
    }
  ],
  "extensionsRequired": [
    "KHR_materials_pbrSpecularGlossiness"
  ],
  "extensionsUsed": [
    "KHR_materials_pbrSpecularGlossiness"
  ],
  "images": [
    {
      "uri": "textures/ACABAMEN_diffuse.jpeg"
    }
  ],
  "materials": [
    {
      "doubleSided": true,
      "extensions": {
        "KHR_materials_pbrSpecularGlossiness": {
          "diffuseFactor": [
            1.0,
            1.0,
            1.0,
            1.0
          ],
          "diffuseTexture": {
            "index": 0
          },
          "glossinessFactor": 0.4,
          "specularFactor": [
            0.0,
            0.0,
            0.0
          ]
        }
      },
      "name": "ACABAMEN"
    },
    {
      "doubleSided": true,
      "extensions": {
        "KHR_materials_pbrSpecularGlossiness": {
          "diffuseFactor": [
            0.0117647,
            0.0117647,
            0.0117647,
            1.0
          ],
          "glossinessFactor": 0.4,
          "specularFactor": [
            0.017915360149166403,
            0.017915360149166403,
            0.017915360149166403
          ]
        }
      },
      "name": "ESTRUTUR"
    }
  ],
  "meshes": [
    {
      "name": "Object_0",
      "primitives": [
        {
          "attributes": {
            "NORMAL": 1,
            "POSITION": 0,
            "TEXCOORD_0": 2
          },
          "indices": 3,
          "material": 0,
          "mode": 4
        }
      ]
    },
    {
      "name": "Object_1",
      "primitives": [
        {
          "attributes": {
            "NORMAL": 5,
            "POSITION": 4,
            "TEXCOORD_0": 6
          },
          "indices": 7,
          "material": 1,
          "mode": 4
        }
      ]
    },
    {
      "name": "Object_2",
      "primitives": [
        {
          "attributes": {
            "NORMAL": 9,
            "POSITION": 8,
            "TEXCOORD_0": 10
          },
          "indices": 11,
          "material": 1,
          "mode": 4
        }
      ]
    },
    {
      "name": "Object_3",
      "primitives": [
        {
          "attributes": {
            "NORMAL": 13,
            "POSITION": 12,
            "TEXCOORD_0": 14
          },
          "indices": 15,
          "material": 1,
          "mode": 4
        }
      ]
    },
    {
      "name": "Object_4",
      "primitives": [
        {
          "attributes": {
            "NORMAL": 17,
            "POSITION": 16,
            "TEXCOORD_0": 18
          },
          "indices": 19,
          "material": 1,
          "mode": 4
        }
      ]
    },
    {
      "name": "Object_5",
      "primitives": [
        {
          "attributes": {
            "NORMAL": 21,
            "POSITION": 20,
            "TEXCOORD_0": 22
          },
          "indices": 23,
          "material": 1,
          "mode": 4
        }
      ]
    }
  ],
  "nodes": [
    {
      "children": [
        1
      ],
      "matrix": [
        1.0,
        0.0,
        0.0,
        0.0,
        0.0,
        2.220446049250313e-16,
        -1.0,
        0.0,
        0.0,
        1.0,
        2.220446049250313e-16,
        0.0,
        0.0,
        0.0,
        0.0,
        1.0
      ],
      "name": "Sketchfab_model"
    },
    {
      "children": [
        2
      ],
      "name": "c5bb28b4ea864c5d94d6cfbef6297e52.3ds"
    },
    {
      "children": [
        3
      ],
      "name": "Model"
    },
    {
      "children": [
        4,
        6,
        8
      ],
      "name": "Parafusos0"
    },
    {
      "children": [
        5
      ],
      "name": "ACABAMENTO"
    },
    {
      "mesh": 0,
      "name": "Object_5"
    },
    {
      "children": [
        7
      ],
      "name": "ESTRUTUR01"
    },
    {
      "mesh": 1,
      "name": "Object_7"
    },
    {
      "children": [
        9,
        10,
        11,
        12
      ],
      "name": "ESTRUTURA"
    },
    {
      "mesh": 2,
      "name": "Object_9"
    },
    {
      "mesh": 3,
      "name": "Object_10"
    },
    {
      "mesh": 4,
      "name": "Object_11"
    },
    {
      "mesh": 5,
      "name": "Object_12"
    }
  ],
  "samplers": [
    {
      "magFilter": 9729,
      "minFilter": 9987,
      "wrapS": 10497,
      "wrapT": 10497
    }
  ],
  "scene": 0,
  "scenes": [
    {
      "name": "Sketchfab_Scene",
      "nodes": [
        0
      ]
    }
  ],
  "textures": [
    {
      "sampler": 0,
      "source": 0
    }
  ]
}
