{
  "accessors": [
    {
      "bufferView": 2,
      "componentType": 5126,
      "count": 9229,
      "max": [
        2.601803779602051,
        1.1072551012039185,
        0.7699998617172241
      ],
      "min": [
        2.6645352591003757e-15,
        -1.7763568394002505e-15,
        7.642087421827948e-17
      ],
      "type": "VEC3"
    },
    {
      "bufferView": 2,
      "byteOffset": 110748,
      "componentType": 5126,
      "count": 9229,
      "max": [
        0.9999759197235107,
        1.0,
        1.0
      ],
      "min": [
        -0.999951183795929,
        -1.0,
        -1.0
      ],
      "type": "VEC3"
    },
    {
      "bufferView": 1,
      "componentType": 5126,
      "count": 9229,
      "max": [
        29.958141326904297,
        41.59475326538086
      ],
      "min": [
        -24.8016357421875,
        0.04995518550276756
      ],
      "type": "VEC2"
    },
    {
      "bufferView": 0,
      "componentType": 5125,
      "count": 25356,
      "type": "SCALAR"
    },
    {
      "bufferView": 2,
      "byteOffset": 221496,
      "componentType": 5126,
      "count": 3892,
      "max": [
        2.601803779602051,
        1.1072551012039185,
        0.7699998617172241
      ],
      "min": [
        0.000356390664819628,
        0.15425781905651093,
        0.06113441288471222
      ],
      "type": "VEC3"
    },
    {
      "bufferView": 2,
      "byteOffset": 268200,
      "componentType": 5126,
      "count": 3892,
      "max": [
        0.9985358119010925,
        0.9998505711555481,
        0.9999904632568359
      ],
      "min": [
        -0.9984094500541687,
        -0.9996867179870605,
        -0.9999997615814209
      ],
      "type": "VEC3"
    },
    {
      "bufferView": 1,
      "byteOffset": 73832,
      "componentType": 5126,
      "count": 3892,
      "max": [
        29.874317169189453,
        28.30632209777832
      ],
      "min": [
        0.6056538224220276,
        0.049955014139413834
      ],
      "type": "VEC2"
    },
    {
      "bufferView": 0,
      "byteOffset": 101424,
      "componentType": 5125,
      "count": 6468,
      "type": "SCALAR"
    }
  ],
  "asset": {
    "extras": {
      "author": "Grupo Oca (https://sketchfab.com/grupooca)",
      "license": "CC-BY-4.0 (http://creativecommons.org/licenses/by/4.0/)",
      "source": "https://sketchfab.com/3d-models/sofa-osires-zeea-agave-casa-55d228bce79444ffbab9cf049954f98a",
      "title": "SOFA OSIRES ZEEA AGAVE CASA"
    },
    "generator": "Sketchfab-15.34.0",
    "version": "2.0"
  },
  "bufferViews": [
    {
      "buffer": 0,
      "byteLength": 127296,
      "name": "floatBufferViews",
      "target": 34963
    },
    {
      "buffer": 0,
      "byteLength": 104968,
      "byteOffset": 127296,
      "byteStride": 8,
      "name": "floatBufferViews",
      "target": 34962
    },
    {
      "buffer": 0,
      "byteLength": 314904,
      "byteOffset": 232264,
      "byteStride": 12,
      "name": "floatBufferViews",
      "target": 34962
    }
  ],
  "buffers": [
    {
      "byteLength": 547168,
      "uri": "scene.bin"
    }
  ],
  "extensionsRequired": [
    "KHR_materials_pbrSpecularGlossiness"
  ],
  "extensionsUsed": [
    "KHR_materials_pbrSpecularGlossiness"
  ],
  "images": [
    {
      "uri": "textures/ESTRUTUR_diffuse.jpeg"
    }
  ],
  "materials": [
    {
      "doubleSided": true,
      "extensions": {
        "KHR_materials_pbrSpecularGlossiness": {
          "diffuseFactor": [
            1.0,
            1.0,
            1.0,
            1.0
          ],
          "diffuseTexture": {
            "index": 0
          },
          "glossinessFactor": 0.4,
          "specularFactor": [
            0.0,
            0.0,
            0.0
          ]
        }
      },
      "name": "ESTRUTUR"
    }
  ],
  "meshes": [
    {
      "name": "Object_0",
      "primitives": [
        {
          "attributes": {
            "NORMAL": 1,
            "POSITION": 0,
            "TEXCOORD_0": 2
          },
          "indices": 3,
          "material": 0,
          "mode": 4
        }
      ]
    },
    {
      "name": "Object_1",
      "primitives": [
        {
          "attributes": {
            "NORMAL": 5,
            "POSITION": 4,
            "TEXCOORD_0": 6
          },
          "indices": 7,
          "material": 0,
          "mode": 4
        }
      ]
    }
  ],
  "nodes": [
    {
      "children": [
        1
      ],
      "matrix": [
        1.0,
        0.0,
        0.0,
        0.0,
        0.0,
        2.220446049250313e-16,
        -1.0,
        0.0,
        0.0,
        1.0,
        2.220446049250313e-16,
        0.0,
        0.0,
        0.0,
        0.0,
        1.0
      ],
      "name": "Sketchfab_model"
    },
    {
      "children": [
        2
      ],
      "name": "b1ba88aacda44281a32e80e17450e4a3.3ds"
    },
    {
      "children": [
        3
      ],
      "name": "Model"
    },
    {
      "children": [
        4,
        5
      ],
      "name": "ESTRUTURA"
    },
    {
      "mesh": 0,
      "name": "Object_4"
    },
    {
      "mesh": 1,
      "name": "Object_5"
    }
  ],
  "samplers": [
    {
      "magFilter": 9729,
      "minFilter": 9987,
      "wrapS": 10497,
      "wrapT": 10497
    }
  ],
  "scene": 0,
  "scenes": [
    {
      "name": "Sketchfab_Scene",
      "nodes": [
        0
      ]
    }
  ],
  "textures": [
    {
      "sampler": 0,
      "source": 0
    }
  ]
}
