{
	"asset":{
		"generator":"Khronos glTF Blender I/O v4.0.44",
		"version":"2.0"
	},
	"extensionsUsed":[
		"KHR_materials_specular",
		"KHR_materials_ior"
	],
	"scene":0,
	"scenes":[
		{
			"name":"Scene",
			"nodes":[
				0,
				1,
				2,
				3
			]
		}
	],
	"nodes":[
		{
			"mesh":0,
			"name":"Cube"
		},
		{
			"mesh":1,
			"name":"Cylinder001",
			"rotation":[
				0.7071068286895752,
				0,
				0,
				0.7071068286895752
			]
		},
		{
			"mesh":2,
			"name":"Lamp_Base",
			"rotation":[
				0.7071068286895752,
				0,
				0,
				0.7071068286895752
			]
		},
		{
			"mesh":3,
			"name":"Lamp_Head",
			"rotation":[
				0.7071068286895752,
				0,
				0,
				0.7071068286895752
			]
		}
	],
	"materials":[
		{
			"doubleSided":true,
			"name":"Material",
			"pbrMetallicRoughness":{
				"baseColorFactor":[
					0.800000011920929,
					0.800000011920929,
					0.800000011920929,
					1
				],
				"metallicFactor":0,
				"roughnessFactor":0.5
			}
		},
		{
			"doubleSided":true,
			"extensions":{
				"KHR_materials_specular":{
					"specularFactor":0
				},
				"KHR_materials_ior":{
					"ior":1.4500000476837158
				}
			},
			"name":"wire_027177027",
			"pbrMetallicRoughness":{
				"baseColorFactor":[
					0.800000011920929,
					0.800000011920929,
					0.800000011920929,
					1
				],
				"metallicFactor":0
			}
		},
		{
			"doubleSided":true,
			"extensions":{
				"KHR_materials_specular":{
					"specularFactor":0
				},
				"KHR_materials_ior":{
					"ior":1.4500000476837158
				}
			},
			"name":"wire_000000000",
			"pbrMetallicRoughness":{
				"baseColorFactor":[
					0.800000011920929,
					0.800000011920929,
					0.800000011920929,
					1
				],
				"metallicFactor":0
			}
		}
	],
	"meshes":[
		{
			"name":"Cube",
			"primitives":[
				{
					"attributes":{
						"POSITION":0,
						"NORMAL":1,
						"TEXCOORD_0":2
					},
					"indices":3,
					"material":0
				}
			]
		},
		{
			"name":"Cylinder001",
			"primitives":[
				{
					"attributes":{
						"POSITION":4,
						"NORMAL":5,
						"TEXCOORD_0":6
					},
					"indices":7,
					"material":1
				}
			]
		},
		{
			"name":"Lamp_Base",
			"primitives":[
				{
					"attributes":{
						"POSITION":8,
						"NORMAL":9,
						"TEXCOORD_0":10
					},
					"indices":11,
					"material":2
				}
			]
		},
		{
			"name":"Lamp_Head",
			"primitives":[
				{
					"attributes":{
						"POSITION":12,
						"NORMAL":13,
						"TEXCOORD_0":14
					},
					"indices":15,
					"material":1
				}
			]
		}
	],
	"accessors":[
		{
			"bufferView":0,
			"componentType":5126,
			"count":24,
			"max":[
				1,
				1,
				1
			],
			"min":[
				-1,
				-1,
				-1
			],
			"type":"VEC3"
		},
		{
			"bufferView":1,
			"componentType":5126,
			"count":24,
			"type":"VEC3"
		},
		{
			"bufferView":2,
			"componentType":5126,
			"count":24,
			"type":"VEC2"
		},
		{
			"bufferView":3,
			"componentType":5123,
			"count":36,
			"type":"SCALAR"
		},
		{
			"bufferView":4,
			"componentType":5126,
			"count":1540,
			"max":[
				10.177399635314941,
				13.771100044250488,
				-0.0406000018119812
			],
			"min":[
				-33.44559860229492,
				-29.871000289916992,
				-2.791800022125244
			],
			"type":"VEC3"
		},
		{
			"bufferView":5,
			"componentType":5126,
			"count":1540,
			"type":"VEC3"
		},
		{
			"bufferView":6,
			"componentType":5126,
			"count":1540,
			"type":"VEC2"
		},
		{
			"bufferView":7,
			"componentType":5123,
			"count":4758,
			"type":"SCALAR"
		},
		{
			"bufferView":8,
			"componentType":5126,
			"count":3048,
			"max":[
				14.914600372314453,
				5.211900234222412,
				-2.012700080871582
			],
			"min":[
				-24.083599090576172,
				-42.49660110473633,
				-168.32359313964844
			],
			"type":"VEC3"
		},
		{
			"bufferView":9,
			"componentType":5126,
			"count":3048,
			"type":"VEC3"
		},
		{
			"bufferView":10,
			"componentType":5126,
			"count":3048,
			"type":"VEC2"
		},
		{
			"bufferView":11,
			"componentType":5123,
			"count":4680,
			"type":"SCALAR"
		},
		{
			"bufferView":12,
			"componentType":5126,
			"count":527,
			"max":[
				30.984100341796875,
				-32.28620147705078,
				-121.68190002441406
			],
			"min":[
				3.7985000610351562,
				-59.484500885009766,
				-143.04469299316406
			],
			"type":"VEC3"
		},
		{
			"bufferView":13,
			"componentType":5126,
			"count":527,
			"type":"VEC3"
		},
		{
			"bufferView":14,
			"componentType":5126,
			"count":527,
			"type":"VEC2"
		},
		{
			"bufferView":15,
			"componentType":5123,
			"count":2784,
			"type":"SCALAR"
		}
	],
	"bufferViews":[
		{
			"buffer":0,
			"byteLength":288,
			"byteOffset":0,
			"target":34962
		},
		{
			"buffer":0,
			"byteLength":288,
			"byteOffset":288,
			"target":34962
		},
		{
			"buffer":0,
			"byteLength":192,
			"byteOffset":576,
			"target":34962
		},
		{
			"buffer":0,
			"byteLength":72,
			"byteOffset":768,
			"target":34963
		},
		{
			"buffer":0,
			"byteLength":18480,
			"byteOffset":840,
			"target":34962
		},
		{
			"buffer":0,
			"byteLength":18480,
			"byteOffset":19320,
			"target":34962
		},
		{
			"buffer":0,
			"byteLength":12320,
			"byteOffset":37800,
			"target":34962
		},
		{
			"buffer":0,
			"byteLength":9516,
			"byteOffset":50120,
			"target":34963
		},
		{
			"buffer":0,
			"byteLength":36576,
			"byteOffset":59636,
			"target":34962
		},
		{
			"buffer":0,
			"byteLength":36576,
			"byteOffset":96212,
			"target":34962
		},
		{
			"buffer":0,
			"byteLength":24384,
			"byteOffset":132788,
			"target":34962
		},
		{
			"buffer":0,
			"byteLength":9360,
			"byteOffset":157172,
			"target":34963
		},
		{
			"buffer":0,
			"byteLength":6324,
			"byteOffset":166532,
			"target":34962
		},
		{
			"buffer":0,
			"byteLength":6324,
			"byteOffset":172856,
			"target":34962
		},
		{
			"buffer":0,
			"byteLength":4216,
			"byteOffset":179180,
			"target":34962
		},
		{
			"buffer":0,
			"byteLength":5568,
			"byteOffset":183396,
			"target":34963
		}
	],
	"buffers":[
		{
			"byteLength":188964,
			"uri":"scene.bin"
		}
	]
}
